<svg xmlns="http://www.w3.org/2000/svg" viewBox="0 0 64 64">
  <defs>
    <linearGradient id="bg" x1="0" x2="1" y1="0" y2="1">
      <stop offset="0%" stop-color="#1b1b27"/>
      <stop offset="100%" stop-color="#0a0a0f"/>
    </linearGradient>
    <linearGradient id="coin" x1="0" x2="1" y1="0" y2="1">
      <stop offset="0%" stop-color="#ffb347"/>
      <stop offset="100%" stop-color="#f7931a"/>
    </linearGradient>
  </defs>
  <rect width="64" height="64" rx="16" fill="url(#bg)"/>
  <circle cx="32" cy="32" r="20" fill="url(#coin)"/>
  <path d="M35.5 18h-3v4.1c-.9 0-1.8 0-2.7.1V18h-3v4.4c-.7.1-1.4.2-2 .4l.9 3.2c.5-.1 1-.2 1.6-.3v12.8c-.5.1-1.1.2-1.7.3l-.8 3.2c.8.2 1.5.3 2.3.4V46h3v-4.1h2.7V46h3v-4.4c4-.8 6.6-3.1 6.6-6.7 0-2.7-1.4-4.5-4-5.4 1.9-.9 3-2.4 3-4.7 0-3.3-2.4-5.5-6.9-6.2Zm-5.4 7c.8-.1 1.8-.1 2.7-.1 2.3 0 3.5.7 3.5 2.1 0 1.6-1.4 2.3-3.9 2.3h-2.3V25Zm2.8 12.1c-1 0-1.9 0-2.8-.1v-4.9h2.6c2.8 0 4.2.8 4.2 2.4 0 1.7-1.4 2.6-4 2.6Z" fill="#fff6e9"/>
  <path d="M47 16l1.8 1.8-5.9 5.9-1.8-1.8z" fill="#7df9c1" opacity=".9"/>
  <path d="M18 47l1.8-1.8 5.9 5.9-1.8 1.8z" fill="#7df9c1" opacity=".9"/>
</svg>
